<svg width="25" height="24" viewBox="0 0 25 24" fill="none" xmlns="http://www.w3.org/2000/svg">
<g id="award-03">
<path id="Icon" d="M8.36866 15.4599L7.5 22L12.0884 19.247C12.2381 19.1572 12.3129 19.1123 12.3928 19.0947C12.4634 19.0792 12.5366 19.0792 12.6072 19.0947C12.6871 19.1123 12.7619 19.1572 12.9116 19.247L17.5 22L16.6319 15.4571M16.9259 4.24888C17.0803 4.6224 17.3768 4.9193 17.75 5.0743L19.0589 5.61648C19.4325 5.77121 19.7292 6.06799 19.884 6.44154C20.0387 6.81509 20.0387 7.23481 19.884 7.60836L19.3422 8.91635C19.1874 9.29007 19.1872 9.71021 19.3427 10.0837L19.8835 11.3913C19.9602 11.5764 19.9997 11.7747 19.9997 11.975C19.9998 12.1752 19.9603 12.3736 19.8837 12.5586C19.8071 12.7436 19.6947 12.9118 19.5531 13.0534C19.4114 13.195 19.2433 13.3073 19.0582 13.3839L17.7503 13.9256C17.3768 14.0801 17.0799 14.3765 16.9249 14.7498L16.3827 16.0588C16.228 16.4323 15.9312 16.7291 15.5577 16.8838C15.1841 17.0386 14.7644 17.0386 14.3909 16.8838L13.083 16.342C12.7094 16.1877 12.2899 16.188 11.9166 16.3429L10.6077 16.8843C10.2343 17.0387 9.81501 17.0386 9.44178 16.884C9.06854 16.7293 8.77194 16.4329 8.61711 16.0598L8.07479 14.7504C7.92035 14.3769 7.62391 14.08 7.25064 13.925L5.94175 13.3828C5.56838 13.2282 5.27169 12.9316 5.11691 12.5582C4.96213 12.1849 4.96192 11.7654 5.11633 11.3919L5.6581 10.0839C5.81244 9.71035 5.81213 9.29079 5.65722 8.91746L5.11623 7.60759C5.03953 7.42257 5.00003 7.22426 5 7.02397C4.99997 6.82369 5.0394 6.62536 5.11604 6.44032C5.19268 6.25529 5.30504 6.08716 5.44668 5.94556C5.58832 5.80396 5.75647 5.69166 5.94152 5.61508L7.24947 5.07329C7.62265 4.91898 7.91936 4.6229 8.07448 4.25004L8.61664 2.94111C8.77136 2.56756 9.06813 2.27078 9.44167 2.11605C9.8152 1.96132 10.2349 1.96132 10.6084 2.11605L11.9164 2.65784C12.2899 2.81218 12.7095 2.81187 13.0828 2.65696L14.3922 2.11689C14.7657 1.96224 15.1853 1.96228 15.5588 2.11697C15.9322 2.27167 16.229 2.56837 16.3837 2.94182L16.926 4.25115L16.9259 4.24888Z" stroke="#0ABAB5" stroke-width="2" stroke-linecap="round" stroke-linejoin="round"/>
</g>
</svg>
