<svg width="25" height="24" viewBox="0 0 25 24" fill="none" xmlns="http://www.w3.org/2000/svg">
<g id="bank-note-03">
<path id="Icon" d="M14.5 9H12C11.1716 9 10.5 9.67157 10.5 10.5C10.5 11.3284 11.1716 12 12 12H13C13.8284 12 14.5 12.6716 14.5 13.5C14.5 14.3284 13.8284 15 13 15H10.5M12.5 8V9M12.5 15V16M18.5 12H18.51M6.5 12H6.51M2.5 8.2L2.5 15.8C2.5 16.9201 2.5 17.4802 2.71799 17.908C2.90973 18.2843 3.21569 18.5903 3.59202 18.782C4.01984 19 4.57989 19 5.7 19L19.3 19C20.4201 19 20.9802 19 21.408 18.782C21.7843 18.5903 22.0903 18.2843 22.282 17.908C22.5 17.4802 22.5 16.9201 22.5 15.8V8.2C22.5 7.0799 22.5 6.51984 22.282 6.09202C22.0903 5.7157 21.7843 5.40974 21.408 5.21799C20.9802 5 20.4201 5 19.3 5L5.7 5C4.5799 5 4.01984 5 3.59202 5.21799C3.2157 5.40973 2.90973 5.71569 2.71799 6.09202C2.5 6.51984 2.5 7.07989 2.5 8.2ZM19 12C19 12.2761 18.7761 12.5 18.5 12.5C18.2239 12.5 18 12.2761 18 12C18 11.7239 18.2239 11.5 18.5 11.5C18.7761 11.5 19 11.7239 19 12ZM7 12C7 12.2761 6.77614 12.5 6.5 12.5C6.22386 12.5 6 12.2761 6 12C6 11.7239 6.22386 11.5 6.5 11.5C6.77614 11.5 7 11.7239 7 12Z" stroke="#0ABAB5" stroke-width="2" stroke-linecap="round" stroke-linejoin="round"/>
</g>
</svg>
