<svg width="25" height="25" viewBox="0 0 25 25" fill="none" xmlns="http://www.w3.org/2000/svg">
<g id="bell-02">
<path id="Icon" d="M14.5 21.5H10.5M18.5 8.5C18.5 6.9087 17.8679 5.38258 16.7426 4.25736C15.6174 3.13214 14.0913 2.5 12.5 2.5C10.9087 2.5 9.38258 3.13214 8.25736 4.25736C7.13214 5.38258 6.5 6.9087 6.5 8.5C6.5 11.5902 5.72047 13.706 4.84967 15.1054C4.11513 16.2859 3.74786 16.8761 3.76133 17.0408C3.77624 17.2231 3.81486 17.2926 3.96178 17.4016C4.09446 17.5 4.69259 17.5 5.88886 17.5H19.1111C20.3074 17.5 20.9055 17.5 21.0382 17.4016C21.1851 17.2926 21.2238 17.2231 21.2387 17.0408C21.2521 16.8761 20.8849 16.2859 20.1503 15.1054C19.2795 13.706 18.5 11.5902 18.5 8.5Z" stroke="#0ABAB5" stroke-width="2" stroke-linecap="round" stroke-linejoin="round"/>
</g>
</svg>
