<svg width="24" height="25" viewBox="0 0 24 25" fill="none" xmlns="http://www.w3.org/2000/svg">
<g id="bell-02">
<path id="Icon" d="M14 21.5H10M18 8.5C18 6.9087 17.3679 5.38258 16.2427 4.25736C15.1174 3.13214 13.5913 2.5 12 2.5C10.4087 2.5 8.8826 3.13214 7.75738 4.25736C6.63216 5.38258 6.00002 6.9087 6.00002 8.5C6.00002 11.5902 5.22049 13.706 4.34968 15.1054C3.61515 16.2859 3.24788 16.8761 3.26134 17.0408C3.27626 17.2231 3.31488 17.2926 3.46179 17.4016C3.59448 17.5 4.19261 17.5 5.38887 17.5H18.6112C19.8074 17.5 20.4056 17.5 20.5382 17.4016C20.6852 17.2926 20.7238 17.2231 20.7387 17.0408C20.7522 16.8761 20.3849 16.2859 19.6504 15.1054C18.7795 13.706 18 11.5902 18 8.5Z" stroke="black" stroke-width="2" stroke-linecap="round" stroke-linejoin="round"/>
</g>
</svg>
