<svg width="25" height="24" viewBox="0 0 25 24" fill="none" xmlns="http://www.w3.org/2000/svg">
<g id="compass-02">
<path id="Icon" d="M22.5 12H20.5M22.5 12C22.5 17.5228 18.0228 22 12.5 22M22.5 12C22.5 6.47715 18.0228 2 12.5 2M19.5711 19.0711L18.1569 17.6569M4.5 12H2.5M2.5 12C2.5 17.5228 6.97715 22 12.5 22M2.5 12C2.5 6.47715 6.97715 2 12.5 2M6.84315 6.34315L5.42893 4.92893M12.5 4V2M18.1569 6.34315L19.5711 4.92893M12.5 22V20M5.42893 19.0711L6.84315 17.6569M12.5 8L16.5 12L12.5 16L8.5 12L12.5 8Z" stroke="#0ABAB5" stroke-width="2" stroke-linecap="round" stroke-linejoin="round"/>
</g>
</svg>
