<svg width="20" height="20" viewBox="0 0 20 20" fill="none" xmlns="http://www.w3.org/2000/svg">
<g id="Iconly/Light/Delete">
<g id="Delete">
<path id="Stroke 1" d="M16.1042 7.89062C16.1042 7.89062 15.6517 13.5031 15.3892 15.8673C15.2642 16.9965 14.5667 17.6581 13.4242 17.679C11.25 17.7181 9.07332 17.7206 6.89999 17.6748C5.80082 17.6523 5.11499 16.9823 4.99249 15.8731C4.72832 13.4881 4.27832 7.89062 4.27832 7.89062" stroke="#707070" stroke-width="1.25" stroke-linecap="round" stroke-linejoin="round"/>
<path id="Stroke 3" d="M17.2568 5.19987H3.12512" stroke="#707070" stroke-width="1.25" stroke-linecap="round" stroke-linejoin="round"/>
<path id="Stroke 5" d="M14.5337 5.19998C13.8796 5.19998 13.3162 4.73748 13.1879 4.09665L12.9854 3.08331C12.8604 2.61581 12.4371 2.29248 11.9546 2.29248H8.42707C7.94457 2.29248 7.52123 2.61581 7.39623 3.08331L7.19373 4.09665C7.0654 4.73748 6.50207 5.19998 5.8479 5.19998" stroke="#707070" stroke-width="1.25" stroke-linecap="round" stroke-linejoin="round"/>
</g>
</g>
</svg>
