<svg width="21" height="14" viewBox="0 0 21 14" fill="none" xmlns="http://www.w3.org/2000/svg">
<g id="Group">
<path id="Vector" d="M13.3636 6.99993C13.3636 7.8438 13.0284 8.65311 12.4317 9.24982C11.835 9.84653 11.0257 10.1818 10.1818 10.1818C9.33795 10.1818 8.52864 9.84653 7.93193 9.24982C7.33523 8.65311 7 7.8438 7 6.99993C7 6.15606 7.33523 5.34675 7.93193 4.75005C8.52864 4.15334 9.33795 3.81812 10.1818 3.81812C11.0257 3.81812 11.835 4.15334 12.4317 4.75005C13.0284 5.34675 13.3636 6.15606 13.3636 6.99993V6.99993Z" fill="black" fill-opacity="0.2"/>
<path id="Vector_2" d="M0 7C0 7 3.81818 0 10.1818 0C16.5455 0 20.3636 7 20.3636 7C20.3636 7 16.5455 14 10.1818 14C3.81818 14 0 7 0 7ZM10.1818 11.4545C11.3632 11.4545 12.4963 10.9852 13.3317 10.1498C14.167 9.31445 14.6364 8.18142 14.6364 7C14.6364 5.81858 14.167 4.68555 13.3317 3.85016C12.4963 3.01477 11.3632 2.54545 10.1818 2.54545C9.0004 2.54545 7.86737 3.01477 7.03198 3.85016C6.19659 4.68555 5.72727 5.81858 5.72727 7C5.72727 8.18142 6.19659 9.31445 7.03198 10.1498C7.86737 10.9852 9.0004 11.4545 10.1818 11.4545V11.4545Z" fill="black" fill-opacity="0.2"/>
</g>
</svg>
