<svg width="24" height="24" viewBox="0 0 24 24" fill="none" xmlns="http://www.w3.org/2000/svg">
<g id="system-uicons:filtering">
<path id="Vector" d="M21.1431 6.85798H8.57171M6.28599 6.85798H2.85742M21.1431 18.2866H8.57171M6.28599 18.2866H2.85742M15.4289 12.5723H2.85742M21.1431 12.5723H17.7146M7.42885 4.57227C7.73196 4.57227 8.02265 4.69267 8.23697 4.907C8.4513 5.12133 8.57171 5.41202 8.57171 5.71512V8.00084C8.57171 8.30394 8.4513 8.59463 8.23697 8.80896C8.02265 9.02329 7.73196 9.14369 7.42885 9.14369C7.12575 9.14369 6.83506 9.02329 6.62073 8.80896C6.4064 8.59463 6.28599 8.30394 6.28599 8.00084V5.71512C6.28599 5.41202 6.4064 5.12133 6.62073 4.907C6.83506 4.69267 7.12575 4.57227 7.42885 4.57227V4.57227ZM7.42885 16.0008C7.73196 16.0008 8.02265 16.1212 8.23697 16.3356C8.4513 16.5499 8.57171 16.8406 8.57171 17.1437V19.4294C8.57171 19.7325 8.4513 20.0232 8.23697 20.2375C8.02265 20.4519 7.73196 20.5723 7.42885 20.5723C7.12575 20.5723 6.83506 20.4519 6.62073 20.2375C6.4064 20.0232 6.28599 19.7325 6.28599 19.4294V17.1437C6.28599 16.8406 6.4064 16.5499 6.62073 16.3356C6.83506 16.1212 7.12575 16.0008 7.42885 16.0008ZM16.5717 10.2866C16.8748 10.2866 17.1655 10.407 17.3798 10.6213C17.5942 10.8356 17.7146 11.1263 17.7146 11.4294V13.7151C17.7146 14.0182 17.5942 14.3089 17.3798 14.5232C17.1655 14.7376 16.8748 14.858 16.5717 14.858C16.2686 14.858 15.9779 14.7376 15.7636 14.5232C15.5493 14.3089 15.4289 14.0182 15.4289 13.7151V11.4294C15.4289 11.1263 15.5493 10.8356 15.7636 10.6213C15.9779 10.407 16.2686 10.2866 16.5717 10.2866V10.2866Z" stroke="black" stroke-linecap="round" stroke-linejoin="round"/>
</g>
</svg>
