<svg width="24" height="24" viewBox="0 0 24 24" fill="none" xmlns="http://www.w3.org/2000/svg">
<g id="svgexport-6 (1) 1">
<g id="Group">
<path id="Vector" fill-rule="evenodd" clip-rule="evenodd" d="M12 1.25C8.277 1.25 5.25 4.304 5.25 8.071C5.25 9.347 5.812 10.93 6.63 12.509C8.431 15.986 11.431 19.488 11.431 19.488C11.5014 19.57 11.5887 19.6358 11.6869 19.6809C11.7851 19.726 11.8919 19.7494 12 19.7494C12.1081 19.7494 12.2149 19.726 12.3131 19.6809C12.4113 19.6358 12.4986 19.57 12.569 19.488C12.569 19.488 15.569 15.986 17.37 12.509C18.188 10.93 18.75 9.347 18.75 8.071C18.75 4.304 15.723 1.25 12 1.25ZM12 5.25C11.2835 5.26932 10.6028 5.56753 10.1029 6.08115C9.60292 6.59477 9.32317 7.28323 9.32317 8C9.32317 8.71677 9.60292 9.40523 10.1029 9.91885C10.6028 10.4325 11.2835 10.7307 12 10.75C12.7165 10.7307 13.3972 10.4325 13.8971 9.91885C14.3971 9.40523 14.6768 8.71677 14.6768 8C14.6768 7.28323 14.3971 6.59477 13.8971 6.08115C13.3972 5.56753 12.7165 5.26932 12 5.25Z" fill="#0ABAB5"/>
<path id="Vector_2" fill-rule="evenodd" clip-rule="evenodd" d="M16.784 17.377C17.597 17.621 18.267 17.923 18.73 18.277C19.03 18.505 19.25 18.728 19.25 19C19.25 19.16 19.159 19.305 19.031 19.45C18.819 19.689 18.504 19.904 18.114 20.104C16.736 20.809 14.508 21.25 12 21.25C9.492 21.25 7.264 20.809 5.886 20.104C5.496 19.904 5.181 19.689 4.969 19.45C4.841 19.305 4.75 19.16 4.75 19C4.75 18.728 4.97 18.505 5.27 18.277C5.733 17.923 6.403 17.621 7.216 17.377C7.40656 17.3197 7.56655 17.189 7.66079 17.0138C7.75503 16.8385 7.77579 16.633 7.7185 16.4425C7.66121 16.2519 7.53057 16.0919 7.35532 15.9977C7.18007 15.9034 6.97456 15.8827 6.784 15.94C5.546 16.313 4.584 16.824 4.006 17.389C3.498 17.884 3.25 18.438 3.25 19C3.25 19.702 3.647 20.402 4.454 20.986C5.87 22.01 8.714 22.75 12 22.75C15.286 22.75 18.13 22.01 19.546 20.986C20.353 20.402 20.75 19.702 20.75 19C20.75 18.438 20.502 17.884 19.994 17.389C19.416 16.824 18.454 16.313 17.216 15.94C17.1216 15.9116 17.0226 15.9021 16.9246 15.912C16.8266 15.9219 16.7315 15.951 16.6447 15.9977C16.5579 16.0443 16.4812 16.1076 16.4189 16.184C16.3565 16.2603 16.3099 16.3481 16.2815 16.4425C16.2531 16.5368 16.2436 16.6358 16.2535 16.7339C16.2634 16.8319 16.2925 16.927 16.3392 17.0138C16.3859 17.1006 16.4492 17.1773 16.5255 17.2396C16.6018 17.3019 16.6896 17.3486 16.784 17.377Z" fill="#0ABAB5"/>
</g>
</g>
</svg>
