<svg width="25" height="24" viewBox="0 0 25 24" fill="none" xmlns="http://www.w3.org/2000/svg">
<g id="svgexport-17 (10) 1">
<g id="Group">
<path id="Vector" d="M6.875 15.5625C6.875 16.598 6.03552 17.4375 5 17.4375C3.96448 17.4375 3.125 16.598 3.125 15.5625V12.1875C3.125 11.152 3.96448 10.3125 5 10.3125C6.03552 10.3125 6.875 11.152 6.875 12.1875V15.5625ZM21.875 15.5625C21.875 16.598 21.0355 17.4375 20 17.4375C18.9645 17.4375 18.125 16.598 18.125 15.5625V12.1875C18.125 11.152 18.9645 10.3125 20 10.3125C21.0355 10.3125 21.875 11.152 21.875 12.1875V15.5625Z" stroke="#0ABAB5" stroke-width="1.875" stroke-miterlimit="10" stroke-linecap="round" stroke-linejoin="round"/>
<path id="Vector_2" d="M3.125 12.1875V10.3125C3.125 5.13483 7.32233 0.9375 12.5 0.9375C17.6777 0.9375 21.875 5.13483 21.875 10.3125V12.1875M21.875 15.5625V17.4375C21.875 19.5086 20.1961 21.1875 18.125 21.1875H14.375" stroke="#0ABAB5" stroke-width="1.875" stroke-miterlimit="10" stroke-linecap="round" stroke-linejoin="round"/>
<path id="Vector_3" d="M12.5 23.0625C13.5355 23.0625 14.375 22.223 14.375 21.1875C14.375 20.152 13.5355 19.3125 12.5 19.3125C11.4645 19.3125 10.625 20.152 10.625 21.1875C10.625 22.223 11.4645 23.0625 12.5 23.0625Z" stroke="#0ABAB5" stroke-width="1.875" stroke-miterlimit="10" stroke-linecap="round" stroke-linejoin="round"/>
</g>
</g>
</svg>
