<svg width="24" height="24" viewBox="0 0 24 24" fill="none" xmlns="http://www.w3.org/2000/svg">
<g id="ic:sharp-search">
<path id="Vector" d="M10 15.5V14.71L10.27 14.43C11.446 15.4439 12.9473 16.0011 14.5 16C15.7856 16 17.0423 15.6188 18.1112 14.9046C19.1801 14.1903 20.0132 13.1752 20.5052 11.9874C20.9972 10.7997 21.1259 9.49279 20.8751 8.23192C20.6243 6.97104 20.0052 5.81285 19.0962 4.90381C18.1872 3.99477 17.029 3.3757 15.7681 3.1249C14.5072 2.87409 13.2003 3.00282 12.0126 3.49479C10.8248 3.98676 9.80967 4.81988 9.09544 5.8888C8.38122 6.95772 8 8.21442 8 9.5C8 11.11 8.59 12.59 9.57 13.73L9.29 14H8.5L3.51 19L5 20.49L10 15.5ZM10 9.5C10 7.01 12.01 5 14.5 5C16.99 5 19 7.01 19 9.5C19 11.99 16.99 14 14.5 14C12.01 14 10 11.99 10 9.5Z" fill="#CFCFCF"/>
</g>
</svg>
