<svg width="25" height="24" viewBox="0 0 25 24" fill="none" xmlns="http://www.w3.org/2000/svg">
<g id="phone-call-02">
<path id="Icon" d="M5.35864 6C7.17357 4.14864 9.70268 3 12.5001 3C15.2975 3 17.8266 4.14864 19.6415 6M16.9723 9C15.8736 7.7725 14.277 7 12.5 7C10.723 7 9.12647 7.7725 8.02783 9M12.5 17C14.0105 17 15.4608 17.2576 16.8094 17.7313C16.8542 17.747 16.8767 17.7549 16.912 17.7705C17.2326 17.9118 17.4788 18.2591 17.5058 18.6084C17.5088 18.647 17.5088 18.6811 17.5088 18.7494C17.5088 18.9821 17.5088 19.0985 17.5185 19.1965C17.6122 20.1457 18.3631 20.8966 19.3123 20.9903C19.4103 21 19.5267 21 19.7594 21H20.0044C20.465 21 20.6952 21 20.8868 20.9622C21.6829 20.8053 22.3053 20.1829 22.4622 19.3868C22.5 19.1952 22.5 18.965 22.5 18.5044V18.3062C22.5 17.831 22.5 17.5933 22.4493 17.3209C22.3358 16.7119 21.8933 15.9583 21.4166 15.5624C21.2035 15.3854 21.0589 15.3048 20.7698 15.1435C18.322 13.7781 15.5019 13 12.5 13C9.49812 13 6.67797 13.7781 4.23021 15.1435C3.9411 15.3048 3.79654 15.3854 3.5834 15.5624C3.10675 15.9583 2.66421 16.7119 2.55074 17.3209C2.5 17.5933 2.5 17.831 2.5 18.3062V18.5044C2.5 18.965 2.5 19.1952 2.53776 19.3868C2.69469 20.1829 3.31709 20.8053 4.11321 20.9622C4.30476 21 4.53504 21 4.9956 21H5.24057C5.47332 21 5.5897 21 5.68773 20.9903C6.63689 20.8966 7.3878 20.1457 7.48152 19.1965C7.4912 19.0985 7.4912 18.9821 7.4912 18.7494C7.4912 18.6811 7.4912 18.647 7.49418 18.6084C7.52122 18.2591 7.7674 17.9118 8.08798 17.7705C8.12335 17.7549 8.14577 17.747 8.19061 17.7313C9.53921 17.2576 10.9895 17 12.5 17Z" stroke="#0ABAB5" stroke-width="2" stroke-linecap="round" stroke-linejoin="round"/>
</g>
</svg>
