<svg width="25" height="25" viewBox="0 0 25 25" fill="none" xmlns="http://www.w3.org/2000/svg">
<g id="shopping-cart-03">
<path id="Icon" d="M5.50014 14.5H18.6359C19.6487 14.5 20.1551 14.5 20.5582 14.3112C20.9134 14.1448 21.2118 13.8777 21.4163 13.5432C21.6485 13.1633 21.7044 12.66 21.8163 11.6534L22.4013 6.38835C22.4355 6.08088 22.4525 5.92715 22.4031 5.80816C22.3597 5.70366 22.2821 5.61697 22.183 5.56228C22.0702 5.5 21.9155 5.5 21.6062 5.5H5.00014M2.5 2.5H3.74844C4.01306 2.5 4.14537 2.5 4.24889 2.55032C4.34002 2.59463 4.41554 2.66557 4.46544 2.75376C4.52212 2.85394 4.53037 2.98599 4.54688 3.2501L5.45312 17.7499C5.46963 18.014 5.47788 18.1461 5.53456 18.2462C5.58446 18.3344 5.65998 18.4054 5.75111 18.4497C5.85463 18.5 5.98694 18.5 6.25156 18.5H19.5M8 22H8.01M17 22H17.01M8.5 22C8.5 22.2761 8.27614 22.5 8 22.5C7.72386 22.5 7.5 22.2761 7.5 22C7.5 21.7239 7.72386 21.5 8 21.5C8.27614 21.5 8.5 21.7239 8.5 22ZM17.5 22C17.5 22.2761 17.2761 22.5 17 22.5C16.7239 22.5 16.5 22.2761 16.5 22C16.5 21.7239 16.7239 21.5 17 21.5C17.2761 21.5 17.5 21.7239 17.5 22Z" stroke="#0ABAB5" stroke-width="2" stroke-linecap="round" stroke-linejoin="round"/>
</g>
</svg>
