<svg width="25" height="24" viewBox="0 0 25 24" fill="none" xmlns="http://www.w3.org/2000/svg">
<g id="shopping-bag-01">
<path id="Icon" d="M6.02 2.64L4.46 4.72C4.15102 5.13198 3.99652 5.33797 4.00011 5.51039C4.00323 5.66044 4.07358 5.80115 4.19175 5.89368C4.32754 6 4.58503 6 5.1 6H19.9C20.415 6 20.6725 6 20.8083 5.89368C20.9264 5.80115 20.9968 5.66044 20.9999 5.51039C21.0035 5.33797 20.849 5.13198 20.54 4.72L18.98 2.64M6.02 2.64C6.196 2.40533 6.284 2.288 6.39552 2.20338C6.4943 2.12842 6.60616 2.0725 6.72539 2.03845C6.86 2 7.00667 2 7.3 2H17.7C17.9933 2 18.14 2 18.2746 2.03845C18.3938 2.0725 18.5057 2.12842 18.6045 2.20338C18.716 2.288 18.804 2.40533 18.98 2.64M6.02 2.64L4.14 5.14666C3.90254 5.46328 3.78381 5.62159 3.6995 5.79592C3.62469 5.95062 3.57012 6.11431 3.53715 6.28296C3.5 6.47301 3.5 6.6709 3.5 7.06666L3.5 18.8C3.5 19.9201 3.5 20.4802 3.71799 20.908C3.90973 21.2843 4.21569 21.5903 4.59202 21.782C5.01984 22 5.57989 22 6.7 22L18.3 22C19.4201 22 19.9802 22 20.408 21.782C20.7843 21.5903 21.0903 21.2843 21.282 20.908C21.5 20.4802 21.5 19.9201 21.5 18.8V7.06667C21.5 6.6709 21.5 6.47301 21.4628 6.28296C21.4299 6.11431 21.3753 5.95062 21.3005 5.79592C21.2162 5.62159 21.0975 5.46328 20.86 5.14667L18.98 2.64M16.5 10C16.5 11.0609 16.0786 12.0783 15.3284 12.8284C14.5783 13.5786 13.5609 14 12.5 14C11.4391 14 10.4217 13.5786 9.67157 12.8284C8.92143 12.0783 8.5 11.0609 8.5 10" stroke="#0ABAB5" stroke-width="2" stroke-linecap="round" stroke-linejoin="round"/>
</g>
</svg>
