<svg width="25" height="24" viewBox="0 0 25 24" fill="none" xmlns="http://www.w3.org/2000/svg">
<g id="user-right-01">
<path id="Icon" d="M19.5 21L22.5 18M22.5 18L19.5 15M22.5 18H16.5M12.5 15.5H8C6.60444 15.5 5.90665 15.5 5.33886 15.6722C4.06045 16.06 3.06004 17.0605 2.67224 18.3389C2.5 18.9067 2.5 19.6044 2.5 21M15 7.5C15 9.98528 12.9853 12 10.5 12C8.01472 12 6 9.98528 6 7.5C6 5.01472 8.01472 3 10.5 3C12.9853 3 15 5.01472 15 7.5Z" stroke="#0ABAB5" stroke-width="2" stroke-linecap="round" stroke-linejoin="round"/>
</g>
</svg>
