<svg width="32" height="33" viewBox="0 0 32 33" fill="none" xmlns="http://www.w3.org/2000/svg">
<g id="users-01">
<path id="Icon" d="M29.3333 28.5V25.8333C29.3333 23.3482 27.6336 21.2601 25.3333 20.668M20.6667 4.88768C22.6212 5.67886 24 7.59508 24 9.83333C24 12.0716 22.6212 13.9878 20.6667 14.779M22.6667 28.5C22.6667 26.015 22.6667 24.7725 22.2607 23.7924C21.7194 22.4855 20.6811 21.4473 19.3743 20.906C18.3942 20.5 17.1517 20.5 14.6667 20.5H10.6667C8.18164 20.5 6.93912 20.5 5.95901 20.906C4.6522 21.4473 3.61393 22.4855 3.07263 23.7924C2.66666 24.7725 2.66666 26.015 2.66666 28.5M18 9.83333C18 12.7789 15.6122 15.1667 12.6667 15.1667C9.72114 15.1667 7.33332 12.7789 7.33332 9.83333C7.33332 6.88781 9.72114 4.5 12.6667 4.5C15.6122 4.5 18 6.88781 18 9.83333Z" stroke="#0ABAB5" stroke-width="2" stroke-linecap="round" stroke-linejoin="round"/>
</g>
</svg>
