<svg width="32" height="33" viewBox="0 0 32 33" fill="none" xmlns="http://www.w3.org/2000/svg">
<g id="user-circle">
<path id="Icon" d="M7.08838 26.418C7.89948 24.507 9.79322 23.1667 12 23.1667H20C22.2068 23.1667 24.1005 24.507 24.9116 26.418M21.3333 13.1667C21.3333 16.1123 18.9455 18.5001 16 18.5001C13.0545 18.5001 10.6667 16.1123 10.6667 13.1667C10.6667 10.2212 13.0545 7.83341 16 7.83341C18.9455 7.83341 21.3333 10.2212 21.3333 13.1667ZM29.3333 16.5001C29.3333 23.8639 23.3638 29.8334 16 29.8334C8.63619 29.8334 2.66666 23.8639 2.66666 16.5001C2.66666 9.13628 8.63619 3.16675 16 3.16675C23.3638 3.16675 29.3333 9.13628 29.3333 16.5001Z" stroke="#0ABAB5" stroke-width="2" stroke-linecap="round" stroke-linejoin="round"/>
</g>
</svg>
