<svg width="20" height="20" viewBox="0 0 20 20" fill="none" xmlns="http://www.w3.org/2000/svg">
<path fill-rule="evenodd" clip-rule="evenodd" d="M15.833 9.01018L18.0272 2.3951C18.1236 2.10541 17.9606 1.91582 17.8849 1.84745C17.8093 1.77908 17.6056 1.63279 17.323 1.755L2.55203 8.17973C2.29147 8.29392 2.24348 8.52609 2.23534 8.61908C2.22592 8.71053 2.23554 8.94135 2.46333 9.09614L15.8654 18.0269C16.1196 18.196 16.3492 18.0869 16.4355 18.0327C16.5234 17.9773 16.7214 17.8164 16.6797 17.5132L15.6973 10.5038L8.18481 9.8863C7.77254 9.85236 7.46492 9.49042 7.49822 9.07739C7.53152 8.66435 7.89487 8.35685 8.30714 8.39079L15.833 9.01018ZM19.0887 0.939166C19.5361 1.47233 19.675 2.18862 19.451 2.86746L17.1239 9.88119L18.1644 17.3053C18.2761 18.1057 17.9209 18.8711 17.2345 19.3022C16.5486 19.7341 15.7057 19.7221 15.0343 19.2751L1.63225 10.3444C1.01589 9.93342 0.676998 9.22307 0.740052 8.48612C0.806937 7.74597 1.27145 7.10164 1.95467 6.80509L16.7249 0.381005C17.4673 0.0569829 18.2993 0.194361 18.8961 0.739184C18.9657 0.803479 19.0296 0.86869 19.0887 0.939166Z" fill="#61646B"/>
</svg>
