<svg width="20" height="21" viewBox="0 0 20 21" fill="none" xmlns="http://www.w3.org/2000/svg">
<path d="M20 10.4308C20 9.59176 19.932 8.97952 19.7846 8.3446H10.2041V12.1314H15.8277C15.7143 13.0725 15.1021 14.4897 13.7415 15.4421L13.7224 15.5688L16.7516 17.9155L16.9615 17.9365C18.8889 16.1564 20 13.5373 20 10.4308Z" fill="#4285F4"/>
<path d="M10.2041 20.4082C12.9591 20.4082 15.272 19.5012 16.9614 17.9366L13.7415 15.4422C12.8798 16.0431 11.7233 16.4626 10.2041 16.4626C7.50567 16.4626 5.21543 14.6826 4.39903 12.2223L4.27936 12.2325L1.12957 14.6701L1.08838 14.7846C2.76637 18.1179 6.2131 20.4082 10.2041 20.4082Z" fill="#34A853"/>
<path d="M4.39906 12.2223C4.18364 11.5874 4.05897 10.9071 4.05897 10.2042C4.05897 9.50117 4.18364 8.82092 4.38773 8.18601L4.38202 8.05079L1.19276 5.57397L1.08841 5.62361C0.396831 7.00685 0 8.56017 0 10.2042C0 11.8481 0.396831 13.4014 1.08841 14.7846L4.39906 12.2223Z" fill="#FBBC05"/>
<path d="M10.2041 3.94556C12.1201 3.94556 13.4126 4.77322 14.1496 5.46488L17.0294 2.65307C15.2608 1.00908 12.9591 0 10.2041 0C6.2131 0 2.76637 2.29024 1.08838 5.62355L4.38769 8.18595C5.21543 5.72563 7.50567 3.94556 10.2041 3.94556Z" fill="#EB4335"/>
</svg>
