<svg width="29" height="28" viewBox="0 0 29 28" fill="none" xmlns="http://www.w3.org/2000/svg">
<path d="M11.1573 24.2355V20.6681C11.1573 19.7575 11.9009 19.0193 12.8183 19.0193H16.1715C16.612 19.0193 17.0344 19.193 17.3459 19.5022C17.6574 19.8114 17.8324 20.2308 17.8324 20.6681V24.2355C17.8296 24.6141 17.9792 24.9781 18.2478 25.2468C18.5165 25.5155 18.8821 25.6666 19.2635 25.6666H21.5512C22.6197 25.6693 23.6453 25.2499 24.4018 24.5009C25.1583 23.7518 25.5834 22.7347 25.5834 21.674V11.5113C25.5834 10.6545 25.2008 9.84173 24.5388 9.29203L16.7564 3.12177C15.4027 2.03991 13.463 2.07484 12.1497 3.20473L4.54493 9.29203C3.85161 9.82553 3.43723 10.6407 3.41675 11.5113V21.6637C3.41675 23.8744 5.22203 25.6666 7.44895 25.6666H9.68442C10.4765 25.6666 11.1202 25.0322 11.126 24.2459L11.1573 24.2355Z" fill="#AFB1B6"/>
</svg>
