<svg width="20" height="20" viewBox="0 0 20 20" fill="none" xmlns="http://www.w3.org/2000/svg">
<path fill-rule="evenodd" clip-rule="evenodd" d="M14.1024 8.50001C13.7574 8.50001 13.4774 8.22001 13.4774 7.87501V6.08584C13.4774 4.33918 12.0566 2.91834 10.3099 2.91834H10.2966C9.45242 2.91834 8.66159 3.24334 8.06409 3.83584C7.46242 4.43084 7.12992 5.22501 7.12659 6.07168V7.87501C7.12659 8.22001 6.84659 8.50001 6.50159 8.50001C6.15659 8.50001 5.87659 8.22001 5.87659 7.87501V6.08584C5.88159 4.88584 6.34575 3.77834 7.18325 2.94834C8.02159 2.11751 9.12825 1.63668 10.3124 1.66834C12.7458 1.66834 14.7274 3.65001 14.7274 6.08584V7.87501C14.7274 8.22001 14.4474 8.50001 14.1024 8.50001Z" fill="#61646B"/>
<path fill-rule="evenodd" clip-rule="evenodd" d="M7.11837 8.44067C5.72004 8.44067 4.58337 9.57734 4.58337 10.9757V14.5498C4.58337 15.9482 5.72004 17.0848 7.11837 17.0848H13.4859C14.8834 17.0848 16.0209 15.9482 16.0209 14.5498V10.9757C16.0209 9.57734 14.8834 8.44067 13.4859 8.44067H7.11837ZM13.4859 18.3348H7.11837C5.03087 18.3348 3.33337 16.6373 3.33337 14.5498V10.9757C3.33337 8.88817 5.03087 7.19067 7.11837 7.19067H13.4859C15.5734 7.19067 17.2709 8.88817 17.2709 10.9757V14.5498C17.2709 16.6373 15.5734 18.3348 13.4859 18.3348Z" fill="#61646B"/>
<path fill-rule="evenodd" clip-rule="evenodd" d="M10.302 14.313C9.957 14.313 9.677 14.033 9.677 13.688V11.8372C9.677 11.4922 9.957 11.2122 10.302 11.2122C10.647 11.2122 10.927 11.4922 10.927 11.8372V13.688C10.927 14.033 10.647 14.313 10.302 14.313Z" fill="#61646B"/>
</svg>
