<svg width="134" height="40" viewBox="0 0 134 40" fill="none" xmlns="http://www.w3.org/2000/svg">
<g clip-path="url(#clip0_241_3545)">
<path d="M39.9899 8.30856C42.2375 8.30856 44.0594 6.46294 44.0594 4.18626C44.0594 1.90958 42.2375 0.0639648 39.9899 0.0639648C37.7424 0.0639648 35.9204 1.90958 35.9204 4.18626C35.9204 6.46294 37.7424 8.30856 39.9899 8.30856Z" fill="#87BEEF"/>
<path d="M49.5702 8.30856C51.8178 8.30856 53.6398 6.46294 53.6398 4.18626C53.6398 1.90958 51.8178 0.0639648 49.5702 0.0639648C47.3227 0.0639648 45.5007 1.90958 45.5007 4.18626C45.5007 6.46294 47.3227 8.30856 49.5702 8.30856Z" fill="#87BEEF"/>
<path d="M63.6552 16.5371C65.9027 16.5371 67.7247 14.6915 67.7247 12.4148C67.7247 10.1381 65.9027 8.29248 63.6552 8.29248C61.4077 8.29248 59.5857 10.1381 59.5857 12.4148C59.5857 14.6915 61.4077 16.5371 63.6552 16.5371Z" fill="#87BEEF"/>
<path d="M73.2355 16.5371C75.483 16.5371 77.305 14.6915 77.305 12.4148C77.305 10.1381 75.483 8.29248 73.2355 8.29248C70.9879 8.29248 69.166 10.1381 69.166 12.4148C69.166 14.6915 70.9879 16.5371 73.2355 16.5371Z" fill="#87BEEF"/>
<path d="M121.302 14.04C114.302 14.04 108.608 19.8079 108.608 26.8984C108.608 27.6905 108.683 28.4646 108.819 29.2178C107.071 29.2181 104.901 29.2181 102.458 29.2184L103.962 19.303C104.236 17.4869 103.004 15.7899 101.211 15.5125C99.4222 15.2427 97.7434 16.483 97.4695 18.2991L95.8133 29.2194C94.8695 29.2194 93.9101 29.2197 92.9381 29.2197L94.2263 20.7781C94.4998 18.962 93.2683 17.265 91.4755 16.9876C89.6849 16.7177 88.0073 17.9581 87.7335 19.7741L86.2918 29.2207C85.3464 29.2207 84.4029 29.221 83.4649 29.221L84.3689 23.2197C84.6424 21.4036 83.4105 19.7066 81.618 19.4292C79.8275 19.1594 78.1499 20.3997 77.8761 22.2158L76.8206 29.222C74.7788 29.2223 72.8352 29.2227 71.0472 29.223L71.9516 23.2197C72.2251 21.4036 70.9932 19.7066 69.2007 19.4292C67.4101 19.1594 65.7325 20.3997 65.4587 22.2158L64.4039 29.2187H54.8426C55.9279 27.3932 56.5535 25.2571 56.5535 22.9755C56.5535 16.2817 51.1777 10.8361 44.5696 10.8361C37.9615 10.8361 32.5856 16.2817 32.5856 22.9755C32.5856 25.2574 33.2113 27.3935 34.2966 29.2187H25.7257C25.8623 28.4371 25.9342 27.6299 25.9348 26.7968C25.9352 26.0581 25.9348 25.3197 25.9345 24.581C25.9345 24.5781 25.9348 24.5755 25.9348 24.5728L25.998 3.35412C25.998 1.53838 24.5447 0.065918 22.7518 0.065918C20.959 0.065918 19.5057 1.53838 19.5057 3.35412L19.5064 5.78527C19.5064 5.80428 19.5064 5.82297 19.5064 5.84199L19.5112 24.6545C19.5093 25.3646 19.507 26.0804 19.5044 26.8089C19.4886 31.1538 14.998 34.166 10.9589 33.0086C8.03417 32.1702 6.10994 29.344 6.3815 26.285C6.66083 23.1394 9.10261 20.7784 12.3484 20.5158C14.6319 20.3309 15.9845 18.9669 15.8415 16.9932C15.7013 15.0607 14.103 13.8709 11.8503 14.022C6.18892 14.4017 1.5316 18.4954 0.331428 24.0335C-0.899819 29.7161 1.57692 35.4364 6.59253 38.1928C11.569 40.9276 18.2664 40.0148 22.2534 35.942H112.295C114.596 38.2942 117.782 39.7574 121.302 39.7574C128.301 39.7574 133.995 33.9896 133.995 26.8991C133.995 19.8086 128.301 14.04 121.302 14.04ZM44.5689 17.1161C47.7581 17.1161 50.3526 19.744 50.3526 22.9748C50.3526 26.2056 47.7581 28.8335 44.5689 28.8335C41.3798 28.8335 38.7853 26.2056 38.7853 22.9748C38.7856 19.744 41.3801 17.1161 44.5689 17.1161ZM121.302 33.104C117.924 33.104 115.176 30.3204 115.176 26.8984C115.176 23.4764 117.924 20.6928 121.302 20.6928C124.68 20.6928 127.428 23.4764 127.428 26.8984C127.428 30.3204 124.68 33.104 121.302 33.104Z" fill="#87BEEF"/>
</g>
<defs>
<clipPath id="clip0_241_3545">
<rect width="134" height="40" fill="white"/>
</clipPath>
</defs>
</svg>
