<svg width="125" height="119" viewBox="0 0 125 119" fill="none" xmlns="http://www.w3.org/2000/svg">
<g id="56">
<g id="Group 707">
<g id="Group 705">
<g id="Group 664">
<path id="Vector" d="M63.9487 106.977C89.1947 106.977 109.662 86.5096 109.662 61.1735C109.662 35.8374 89.1045 15.3701 63.9487 15.3701C38.7028 15.3701 18.2355 35.8374 18.2355 61.1735C18.2355 86.5096 38.7028 106.977 63.9487 106.977Z" fill="#EAEEF9"/>
<path id="Vector_2" d="M112.502 90.7265C114.544 90.7265 116.199 89.0714 116.199 87.0297C116.199 84.9881 114.544 83.333 112.502 83.333C110.461 83.333 108.806 84.9881 108.806 87.0297C108.806 89.0714 110.461 90.7265 112.502 90.7265Z" fill="#EAEEF9"/>
<path id="Vector_3" d="M117.912 76.3002C119.306 76.3002 120.437 75.1699 120.437 73.7756C120.437 72.3813 119.306 71.251 117.912 71.251C116.518 71.251 115.387 72.3813 115.387 73.7756C115.387 75.1699 116.518 76.3002 117.912 76.3002Z" fill="#EAEEF9"/>
<path id="Vector_4" d="M20.67 31.0585C22.0643 31.0585 23.1946 29.9282 23.1946 28.5339C23.1946 27.1396 22.0643 26.0093 20.67 26.0093C19.2757 26.0093 18.1454 27.1396 18.1454 28.5339C18.1454 29.9282 19.2757 31.0585 20.67 31.0585Z" fill="#EAEEF9"/>
<path id="Vector_5" d="M5.25191 79.7472C7.84131 79.7472 9.94044 77.6481 9.94044 75.0587C9.94044 72.4692 7.84131 70.3701 5.25191 70.3701C2.6625 70.3701 0.56337 72.4692 0.56337 75.0587C0.56337 77.6481 2.6625 79.7472 5.25191 79.7472Z" fill="#EAEEF9"/>
</g>
</g>
<path id="Vector_6" d="M69.6844 77.7803H59.5254C57.1715 77.7803 55.1893 79.9517 55.1893 82.5303V88.0947C55.1893 93.7947 59.4015 98.409 64.6049 98.409C69.8083 98.409 74.0205 93.7947 74.0205 88.0947V82.5303C74.0205 79.816 72.0383 77.7803 69.6844 77.7803Z" fill="white"/>
<g id="Group 706">
<g id="Union" filter="url(#filter0_d_54_880)">
<path fill-rule="evenodd" clip-rule="evenodd" d="M58.6238 24.462V23.5135C58.6238 20.6649 60.8538 18.4356 63.7032 18.4356C66.5527 18.4356 68.7827 20.6649 68.7827 23.5135V24.462C78.723 26.7613 86.1272 35.6636 86.1272 46.3022V49.1508C86.1272 73.178 104.215 88.9072 104.215 88.9072H23.0674C23.0674 88.9072 41.2792 73.178 41.2792 49.1508V46.3022C41.2792 35.6636 48.6834 26.7613 58.6238 24.462Z" fill="url(#paint0_linear_54_880)"/>
</g>
<g id="Group">
<path id="Vector_7" d="M54.2876 58.935C51.1903 58.935 48.5887 56.9534 47.5975 54.1048C47.3498 53.4856 47.7214 52.8663 48.3409 52.6186C48.9603 52.3709 49.5798 52.7425 49.8276 53.3617C50.447 55.2195 52.3053 56.5819 54.2876 56.5819C56.2698 56.5819 58.1282 55.3433 58.7476 53.3617C58.9954 52.7425 59.6148 52.3709 60.2343 52.6186C60.8537 52.8663 61.2254 53.4856 60.9776 54.1048C59.9865 57.0773 57.3848 58.935 54.2876 58.935Z" fill="#ADB6C8"/>
<path id="Vector_8" d="M72.9949 58.935C69.8976 58.935 67.2959 56.9534 66.3048 54.1048C66.0571 53.4856 66.4287 52.8663 67.0482 52.6186C67.6676 52.3709 68.2871 52.7425 68.5348 53.3617C69.1543 55.2195 71.0126 56.5819 72.9949 56.5819C74.9771 56.5819 76.8355 55.3433 77.4549 53.3617C77.7027 52.7425 78.3221 52.3709 78.9416 52.6186C79.561 52.8663 79.9327 53.4856 79.6849 54.1048C78.6938 57.0773 76.0921 58.935 72.9949 58.935Z" fill="#ADB6C8"/>
</g>
<path id="Vector_9" d="M63.7033 74.0995C65.277 74.0995 66.5528 72.8242 66.5528 71.2509C66.5528 69.6777 65.277 68.4023 63.7033 68.4023C62.1296 68.4023 60.8539 69.6777 60.8539 71.2509C60.8539 72.8242 62.1296 74.0995 63.7033 74.0995Z" fill="#ADB6C8"/>
<g id="Group_2">
<path id="Vector_10" d="M78.9718 4.21577V0.0234375H95.1744V4.21577L84.1185 17.555H95.365V21.7474H78.4V17.555L89.4558 4.21577H78.9718V4.21577Z" fill="url(#paint1_linear_54_880)"/>
</g>
<g id="Group_3">
<path id="Vector_11" d="M92.3152 35.6581V32.9902H102.799V35.6581L95.7463 44.2333H102.99V46.9012H91.9339V44.2333L98.9868 35.6581H92.3152Z" fill="url(#paint2_linear_54_880)"/>
</g>
</g>
</g>
</g>
<defs>
<filter id="filter0_d_54_880" x="3.23127" y="8.51749" width="120.82" height="110.144" filterUnits="userSpaceOnUse" color-interpolation-filters="sRGB">
<feFlood flood-opacity="0" result="BackgroundImageFix"/>
<feColorMatrix in="SourceAlpha" type="matrix" values="0 0 0 0 0 0 0 0 0 0 0 0 0 0 0 0 0 0 127 0" result="hardAlpha"/>
<feOffset dy="9.91806"/>
<feGaussianBlur stdDeviation="9.91806"/>
<feColorMatrix type="matrix" values="0 0 0 0 0.397708 0 0 0 0 0.47749 0 0 0 0 0.575 0 0 0 0.27 0"/>
<feBlend mode="normal" in2="BackgroundImageFix" result="effect1_dropShadow_54_880"/>
<feBlend mode="normal" in="SourceGraphic" in2="effect1_dropShadow_54_880" result="shape"/>
</filter>
<linearGradient id="paint0_linear_54_880" x1="63.6148" y1="16.8055" x2="63.6148" y2="89.667" gradientUnits="userSpaceOnUse">
<stop stop-color="#FDFEFF"/>
<stop offset="0.9964" stop-color="#ECF0F5"/>
</linearGradient>
<linearGradient id="paint1_linear_54_880" x1="86.8838" y1="0.778101" x2="86.8838" y2="12.9715" gradientUnits="userSpaceOnUse">
<stop stop-color="#B0BACC"/>
<stop offset="1" stop-color="#969EAE"/>
</linearGradient>
<linearGradient id="paint2_linear_54_880" x1="97.4627" y1="33.4735" x2="97.4627" y2="41.2815" gradientUnits="userSpaceOnUse">
<stop stop-color="#B0BACC"/>
<stop offset="1" stop-color="#969EAE"/>
</linearGradient>
</defs>
</svg>
