<svg width="20" height="20" viewBox="0 0 20 20" fill="none" xmlns="http://www.w3.org/2000/svg">
<mask id="mask0_2_366" style="mask-type:alpha" maskUnits="userSpaceOnUse" x="3" y="12" width="14" height="7">
<path fill-rule="evenodd" clip-rule="evenodd" d="M3.33337 12.0801H16.5333V18.2251H3.33337V12.0801Z" fill="white"/>
</mask>
<g mask="url(#mask0_2_366)">
<path fill-rule="evenodd" clip-rule="evenodd" d="M9.93409 13.3301C6.38325 13.3301 4.58325 13.9401 4.58325 15.1442C4.58325 16.3592 6.38325 16.9751 9.93409 16.9751C13.4841 16.9751 15.2833 16.3651 15.2833 15.1609C15.2833 13.9459 13.4841 13.3301 9.93409 13.3301M9.93409 18.2251C8.30159 18.2251 3.33325 18.2251 3.33325 15.1442C3.33325 12.3976 7.10075 12.0801 9.93409 12.0801C11.5666 12.0801 16.5333 12.0801 16.5333 15.1609C16.5333 17.9076 12.7666 18.2251 9.93409 18.2251" fill="#61646B"/>
</g>
<mask id="mask1_2_366" style="mask-type:alpha" maskUnits="userSpaceOnUse" x="5" y="1" width="10" height="10">
<path fill-rule="evenodd" clip-rule="evenodd" d="M5.5083 1.66675H14.3583V10.5156H5.5083V1.66675Z" fill="white"/>
</mask>
<g mask="url(#mask1_2_366)">
<path fill-rule="evenodd" clip-rule="evenodd" d="M9.93416 2.85641C8.14999 2.85641 6.69833 4.30725 6.69833 6.09141C6.69249 7.86975 8.13333 9.31975 9.90999 9.32641L9.93416 9.92141V9.32641C11.7175 9.32641 13.1683 7.87475 13.1683 6.09141C13.1683 4.30725 11.7175 2.85641 9.93416 2.85641M9.93416 10.5156H9.90749C7.47249 10.5081 5.49999 8.52225 5.50833 6.08891C5.50833 3.65141 7.49333 1.66641 9.93416 1.66641C12.3742 1.66641 14.3583 3.65141 14.3583 6.09141C14.3583 8.53141 12.3742 10.5156 9.93416 10.5156" fill="#61646B"/>
</g>
</svg>
