<svg width="137" height="123" viewBox="0 0 137 123" fill="none" xmlns="http://www.w3.org/2000/svg">
<g id="4">
<path id="Vector" d="M71.1993 121.283C104.348 121.283 131.223 94.4089 131.223 61.1416C131.223 27.8743 104.348 1 71.1993 1C38.0504 1 11.1761 27.8743 11.1761 61.1416C11.1761 94.4089 38.0504 121.283 71.1993 121.283Z" fill="#F1F3F9" stroke="#D6DCE8" stroke-width="2" stroke-miterlimit="10"/>
<path id="Vector_2" d="M27.0402 29.2949H112.399C115.832 29.2949 118.436 31.8995 118.436 35.3328V89.4365C118.436 92.8698 115.832 95.4744 112.399 95.4744H27.0402C23.6069 95.4744 21.0023 92.8698 21.0023 89.4365V35.3328C21.0023 31.8995 23.8437 29.2949 27.0402 29.2949Z" fill="#F1F3F9" stroke="#D6DCE8" stroke-width="2" stroke-miterlimit="10"/>
<g id="Group 658">
<path id="Vector_3" d="M102.073 35.3286L102.799 93.7394C102.799 95.7348 101.166 97.2767 99.1705 97.2767H42.2109C40.2155 97.2767 38.5829 95.6441 38.5829 93.7394V18.6398C38.5829 16.6444 40.2155 15.1025 42.2109 15.1025H83.4794L102.073 35.3286Z" fill="white" stroke="#D6DCE8" stroke-width="2" stroke-miterlimit="10"/>
<path id="Vector_4" d="M75.4978 27.347H48.1971C47.5622 27.347 47.018 26.8028 47.018 26.1679C47.018 25.533 47.5622 24.9888 48.1971 24.9888H75.4978C76.1327 24.9888 76.6769 25.533 76.6769 26.1679C76.6769 26.8028 76.1327 27.347 75.4978 27.347Z" fill="#D6DCE8"/>
<path id="Vector_5" d="M58.7183 33.8777H48.1971C47.5622 33.8777 47.018 33.3335 47.018 32.6986C47.018 32.0637 47.5622 31.5195 48.1971 31.5195H58.6276C59.2625 31.5195 59.8067 32.0637 59.8067 32.6986C59.8067 33.3335 59.2625 33.8777 58.7183 33.8777Z" fill="#D6DCE8"/>
<path id="Vector_6" d="M83.4794 15.1025V31.2471C83.4794 33.5146 85.4748 35.3286 87.7423 35.3286H102.073" fill="#D6DCE8"/>
<path id="Vector_7" d="M94.4733 47.6699H84.5757H82.1224H48.5382C48.1152 47.6699 47.6922 48.0938 47.6922 48.6872C47.6922 49.1959 48.0306 49.7045 48.5382 49.7045H82.1224H84.5757H94.3887C94.9809 49.7045 95.3193 49.2806 95.3193 48.6872C95.3193 48.1786 94.9809 47.6699 94.4733 47.6699Z" fill="#D6DCE8"/>
</g>
<path id="Vector_8" d="M120.094 63.9828V90.6203C120.094 94.0536 117.371 96.8949 113.819 96.8949H26.0931C22.6598 96.8949 19.8185 94.0536 19.8185 90.6203V61.7334" stroke="#1676EE" stroke-width="3" stroke-linecap="round" stroke-linejoin="round"/>
<g id="Group">
<path id="Vector_9" d="M112.635 49.0659H84.9324C82.2095 49.0659 79.6049 50.013 77.5923 51.6705L70.3706 57.5899C68.358 59.2474 65.7534 60.1945 63.0305 60.1945H31.7758C28.5793 60.1945 25.9747 62.799 25.9747 65.9955C25.9747 66.2323 25.9747 66.5875 26.0931 66.8243L31.8942 97.3686C32.3677 100.21 34.7355 102.341 37.6952 102.341H104.585C107.426 102.341 109.913 100.328 110.386 97.487L118.437 55.6957C119.028 52.4992 116.897 49.6579 113.701 49.0659C113.227 49.0659 112.872 49.0659 112.635 49.0659Z" fill="white"/>
</g>
<g id="Group_2">
<path id="Vector_10" d="M125.066 40.8967H89.076C85.5244 40.8967 82.2095 42.0806 79.4865 44.33L70.0154 52.0253C67.4108 54.1563 63.9776 55.4586 60.4259 55.4586H19.7001C15.5565 55.4586 12.2416 58.8918 12.2416 62.9171C12.2416 63.2722 12.2416 63.6274 12.36 63.9826L19.8185 103.88C20.4104 107.668 23.6069 110.391 27.277 110.391H114.411C118.2 110.391 121.278 107.786 121.87 103.998L132.406 49.4207C133.117 45.2771 130.394 41.607 126.25 40.7783C125.895 40.8967 125.421 40.8967 125.066 40.8967Z" fill="white" stroke="#D6DCE8" stroke-width="2" stroke-miterlimit="10"/>
</g>
<path id="Vector_11" d="M132.45 36.8895C134.714 36.8895 136.55 35.0538 136.55 32.7895C136.55 30.5251 134.714 28.6895 132.45 28.6895C130.186 28.6895 128.35 30.5251 128.35 32.7895C128.35 35.0538 130.186 36.8895 132.45 36.8895Z" fill="#F1F3F9"/>
<path id="Vector_12" d="M128.35 23.5893C129.896 23.5893 131.15 22.3357 131.15 20.7893C131.15 19.2429 129.896 17.9893 128.35 17.9893C126.804 17.9893 125.55 19.2429 125.55 20.7893C125.55 22.3357 126.804 23.5893 128.35 23.5893Z" fill="#F1F3F9"/>
<path id="Vector_13" d="M11.95 32.7895C13.4964 32.7895 14.75 31.5358 14.75 29.9895C14.75 28.4431 13.4964 27.1895 11.95 27.1895C10.4036 27.1895 9.15002 28.4431 9.15002 29.9895C9.15002 31.5358 10.4036 32.7895 11.95 32.7895Z" fill="#F1F3F9"/>
<path id="Vector_14" d="M5.65001 94.3893C8.52189 94.3893 10.85 92.0611 10.85 89.1893C10.85 86.3174 8.52189 83.9893 5.65001 83.9893C2.77813 83.9893 0.450012 86.3174 0.450012 89.1893C0.450012 92.0611 2.77813 94.3893 5.65001 94.3893Z" fill="#F1F3F9"/>
<path id="Vector_15" d="M123.867 118.2L106.473 100.841C88.1137 114.342 62.9418 101.178 62.9418 79.1418C62.9418 64.1455 75.1654 51.9941 90.1429 51.9941C111.788 51.9941 125.074 76.2969 112.464 94.6686L129.954 112.124C131.645 113.812 131.645 116.512 129.954 118.2C128.263 119.887 125.558 119.887 123.867 118.2ZM90.1429 60.6255C79.9002 60.6255 71.5418 68.9675 71.5418 79.19C71.5418 95.633 91.2542 103.541 102.56 92.9809C115.363 81.0224 106.812 60.6255 90.1429 60.6255Z" fill="#D6DCE8" stroke="#AAB2C5" stroke-width="2" stroke-miterlimit="10"/>
<g id="Group_3">
<path id="Vector_16" d="M88.2587 83.2403C88.2103 82.8546 88.162 82.4688 88.162 82.0349C88.162 80.4436 88.8384 78.997 90.5294 77.7433L91.9789 76.6825C92.8969 76.0074 93.2834 75.2359 93.2834 74.3197C93.2834 72.9695 92.3171 71.6676 90.2879 71.6676C88.162 71.6676 87.244 73.3553 87.244 75.043C87.244 75.3805 87.2924 75.7181 87.3407 76.0074L83.5721 75.8627C83.4755 75.4288 83.4272 74.9466 83.4272 74.5126C83.4272 71.2819 85.8429 68.1958 90.2396 68.1958C94.8778 68.1958 97.2935 71.089 97.2935 74.1268C97.2935 76.4896 96.0856 78.1291 94.3463 79.3828L93.1384 80.2507C92.0755 80.974 91.5441 81.9384 91.5441 83.1439V83.3368H88.2587V83.2403ZM89.9497 85.1691C91.2542 85.1691 92.3171 86.23 92.3171 87.5319C92.3171 88.8338 91.2542 89.8947 89.9497 89.8947C88.6452 89.8947 87.5822 88.8338 87.5822 87.5319C87.5822 86.23 88.6452 85.1691 89.9497 85.1691Z" fill="#989FB0"/>
</g>
</g>
</svg>
