<svg width="49" height="48" viewBox="0 0 49 48" fill="none" xmlns="http://www.w3.org/2000/svg">
<g id="svgexport-18 (3) 1">
<g id="Group">
<path id="Vector" d="M40.6208 39.5785C38.9736 41.2257 36.3027 41.2257 34.6545 39.5785L28.6883 33.6123L25.0423 29.9663L19.0761 24.0001L25.0423 18.0338L28.6883 14.3879L34.6545 8.42166C35.4786 7.5976 36.5586 7.18604 37.6377 7.18604C38.7177 7.18604 39.7977 7.5976 40.6208 8.42166C42.268 10.0688 42.268 12.7407 40.6208 14.3879L31.0086 24.0001L40.6208 33.6123C41.4439 34.4363 41.8564 35.5154 41.8564 36.5954C41.8564 37.6754 41.4439 38.7545 40.6208 39.5785Z" fill="#0ABAB5" fill-opacity="0.44"/>
<path id="Vector_2" d="M28.6883 39.5785C27.0411 41.2257 24.3702 41.2257 22.722 39.5785L13.1098 29.9663L7.14359 24.0001L13.1098 18.0338L22.722 8.42166C23.5461 7.5976 24.6261 7.18604 25.7052 7.18604C26.7852 7.18604 27.8652 7.5976 28.6883 8.42166C30.3364 10.0688 30.3364 12.7407 28.6883 14.3879L25.0423 18.0338L19.0761 24.0001L25.0423 29.9663L28.6883 33.6123C29.5123 34.4363 29.9239 35.5154 29.9239 36.5954C29.9239 37.6754 29.5123 38.7545 28.6883 39.5785Z" fill="#0ABAB5"/>
</g>
</g>
</svg>
