<svg width="20" height="21" viewBox="0 0 20 21" fill="none" xmlns="http://www.w3.org/2000/svg">
<mask id="mask0_621_833" style="mask-type:alpha" maskUnits="userSpaceOnUse" x="0" y="6" width="20" height="15">
<path fill-rule="evenodd" clip-rule="evenodd" d="M0.000488281 6.79419H20.0001V20.5382H0.000488281V6.79419Z" fill="white"/>
</mask>
<g mask="url(#mask0_621_833)">
<path fill-rule="evenodd" clip-rule="evenodd" d="M15.5655 20.5382H4.43549C1.99049 20.5382 0.000488281 18.5492 0.000488281 16.1032V11.2282C0.000488281 8.78319 1.99049 6.79419 4.43549 6.79419H5.36849C5.78249 6.79419 6.11849 7.13019 6.11849 7.54419C6.11849 7.95819 5.78249 8.29419 5.36849 8.29419H4.43549C2.81649 8.29419 1.50049 9.61019 1.50049 11.2282V16.1032C1.50049 17.7222 2.81649 19.0382 4.43549 19.0382H15.5655C17.1835 19.0382 18.5005 17.7222 18.5005 16.1032V11.2192C18.5005 9.60619 17.1885 8.29419 15.5765 8.29419H14.6335C14.2195 8.29419 13.8835 7.95819 13.8835 7.54419C13.8835 7.13019 14.2195 6.79419 14.6335 6.79419H15.5765C18.0155 6.79419 20.0005 8.77919 20.0005 11.2192V16.1032C20.0005 18.5492 18.0105 20.5382 15.5655 20.5382Z" fill="#AFB1B6"/>
</g>
<mask id="mask1_621_833" style="mask-type:alpha" maskUnits="userSpaceOnUse" x="9" y="0" width="2" height="14">
<path fill-rule="evenodd" clip-rule="evenodd" d="M9.25 0.00012207H10.75V13.541H9.25V0.00012207Z" fill="white"/>
</mask>
<g mask="url(#mask1_621_833)">
<path fill-rule="evenodd" clip-rule="evenodd" d="M10 13.541C9.586 13.541 9.25 13.205 9.25 12.791V0.75C9.25 0.336 9.586 0 10 0C10.414 0 10.75 0.336 10.75 0.75V12.791C10.75 13.205 10.414 13.541 10 13.541Z" fill="#AFB1B6"/>
</g>
<path fill-rule="evenodd" clip-rule="evenodd" d="M7.0852 4.42877C6.8942 4.42877 6.7022 4.35577 6.5562 4.20977C6.2632 3.91777 6.2612 3.44377 6.5542 3.14977L9.4692 0.221771C9.7502 -0.0612285 10.2502 -0.0612285 10.5312 0.221771L13.4472 3.14977C13.7392 3.44377 13.7382 3.91777 13.4452 4.20977C13.1512 4.50177 12.6772 4.50177 12.3852 4.20777L10.0002 1.81377L7.6162 4.20777C7.4702 4.35577 7.2772 4.42877 7.0852 4.42877Z" fill="#AFB1B6"/>
</svg>
